<svg xmlns="http://www.w3.org/2000/svg" xmlns:xlink="http://www.w3.org/1999/xlink" width="100" zoomAndPan="magnify" viewBox="0 0 75 60" height="80" preserveAspectRatio="xMidYMid meet" version="1.0"><defs><g/><clipPath id="23aad65a83"><path d="M 7.613281 6.84375 L 67.613281 6.84375 L 67.613281 38.316406 L 7.613281 38.316406 Z M 7.613281 6.84375 " clip-rule="nonzero"/></clipPath></defs><g clip-path="url(#23aad65a83)"><path fill="#ffffff" d="M 52.796875 9.335938 C 46.351562 9.335938 40.875 13.539062 38.953125 19.347656 C 40.136719 12.488281 46.125 7.253906 53.316406 7.253906 C 55.046875 7.253906 56.707031 7.558594 58.25 8.113281 C 56.335938 7.28125 54.226562 6.816406 52.003906 6.816406 C 45.621094 6.816406 40.132812 10.644531 37.710938 16.132812 C 37.636719 16.359375 37.5625 16.589844 37.496094 16.824219 C 37.429688 16.589844 37.359375 16.359375 37.285156 16.132812 C 34.863281 10.644531 29.375 6.816406 22.992188 6.816406 C 20.769531 6.816406 18.65625 7.28125 16.746094 8.117188 C 18.285156 7.558594 19.949219 7.253906 21.679688 7.253906 C 28.871094 7.253906 34.859375 12.488281 36.039062 19.347656 C 34.121094 13.539062 28.640625 9.335938 22.199219 9.335938 C 14.164062 9.335938 7.625 15.875 7.625 23.910156 C 7.625 23.917969 7.625 23.925781 7.625 23.929688 C 7.628906 25.222656 7.859375 26.507812 8.296875 27.722656 C 10.464844 33.742188 16.226562 38.046875 22.992188 38.046875 C 26.28125 38.046875 29.335938 37.027344 31.855469 35.289062 C 30.507812 36.085938 29.007812 36.683594 27.390625 37.019531 C 20.351562 38.484375 13.417969 34.582031 10.863281 28.109375 C 13.925781 33.402344 20.148438 36.402344 26.457031 35.085938 C 31.933594 33.945312 36.054688 29.851562 37.496094 24.8125 C 38.941406 29.851562 43.0625 33.945312 48.539062 35.085938 C 54.847656 36.402344 61.066406 33.40625 64.132812 28.109375 C 61.574219 34.582031 54.644531 38.484375 47.605469 37.019531 C 45.988281 36.683594 44.488281 36.085938 43.140625 35.285156 C 45.65625 37.027344 48.710938 38.046875 52.003906 38.046875 C 58.769531 38.046875 64.53125 33.742188 66.699219 27.722656 C 67.136719 26.507812 67.367188 25.222656 67.367188 23.929688 C 67.367188 23.921875 67.367188 23.917969 67.367188 23.910156 C 67.367188 15.875 60.832031 9.335938 52.796875 9.335938 Z M 51.828125 13.0625 C 57.140625 12.964844 61.46875 17.292969 61.371094 22.609375 C 61.277344 27.617188 57.191406 31.703125 52.183594 31.796875 C 46.867188 31.894531 42.539062 27.570312 42.636719 22.253906 C 42.730469 17.242188 46.816406 13.15625 51.828125 13.0625 Z M 32.359375 22.253906 C 32.457031 27.566406 28.128906 31.894531 22.8125 31.796875 C 17.804688 31.703125 13.714844 27.617188 13.621094 22.609375 C 13.523438 17.292969 17.851562 12.964844 23.167969 13.0625 C 28.175781 13.15625 32.265625 17.242188 32.359375 22.253906 Z M 32.359375 22.253906 " fill-opacity="1" fill-rule="nonzero"/></g><path fill="#0077b6" d="M 47.246094 18.078125 C 48.984375 17.265625 51.117188 17.578125 52.550781 19.011719 C 54.378906 20.84375 54.378906 23.816406 52.550781 25.648438 C 50.71875 27.480469 47.746094 27.480469 45.914062 25.648438 C 44.480469 24.214844 44.167969 22.085938 44.976562 20.347656 C 45.0625 20.613281 45.210938 20.863281 45.421875 21.074219 C 46.125 21.777344 47.269531 21.777344 47.972656 21.074219 C 48.679688 20.367188 48.679688 19.226562 47.972656 18.519531 C 47.765625 18.308594 47.511719 18.164062 47.246094 18.078125 Z M 24.214844 18.582031 C 24.917969 19.289062 24.917969 20.429688 24.214844 21.136719 C 23.507812 21.839844 22.367188 21.839844 21.660156 21.136719 C 21.449219 20.925781 21.304688 20.675781 21.21875 20.410156 C 20.410156 22.148438 20.71875 24.277344 22.152344 25.710938 C 23.984375 27.542969 26.957031 27.542969 28.789062 25.710938 C 30.621094 23.878906 30.621094 20.910156 28.789062 19.078125 C 27.355469 17.644531 25.226562 17.332031 23.488281 18.140625 C 23.753906 18.226562 24.003906 18.371094 24.214844 18.582031 Z M 24.214844 18.582031 " fill-opacity="1" fill-rule="nonzero"/><g fill="#ffffff" fill-opacity="1"><g transform="translate(1.594953, 50.388386)"><g><path d="M 5.09375 0.203125 C 4.226562 0.203125 3.5 0.078125 2.90625 -0.171875 C 2.3125 -0.421875 1.832031 -0.757812 1.46875 -1.1875 C 1.113281 -1.613281 0.851562 -2.085938 0.6875 -2.609375 C 0.53125 -3.140625 0.453125 -3.675781 0.453125 -4.21875 C 0.453125 -4.757812 0.53125 -5.296875 0.6875 -5.828125 C 0.851562 -6.359375 1.113281 -6.835938 1.46875 -7.265625 C 1.832031 -7.703125 2.3125 -8.046875 2.90625 -8.296875 C 3.5 -8.554688 4.226562 -8.6875 5.09375 -8.6875 C 5.957031 -8.6875 6.6875 -8.554688 7.28125 -8.296875 C 7.882812 -8.046875 8.363281 -7.703125 8.71875 -7.265625 C 9.070312 -6.828125 9.328125 -6.34375 9.484375 -5.8125 C 9.648438 -5.289062 9.734375 -4.757812 9.734375 -4.21875 C 9.734375 -3.675781 9.648438 -3.140625 9.484375 -2.609375 C 9.328125 -2.085938 9.070312 -1.613281 8.71875 -1.1875 C 8.363281 -0.757812 7.882812 -0.421875 7.28125 -0.171875 C 6.6875 0.078125 5.957031 0.203125 5.09375 0.203125 Z M 3.109375 -4.21875 C 3.109375 -3.738281 3.160156 -3.320312 3.265625 -2.96875 C 3.367188 -2.613281 3.5625 -2.34375 3.84375 -2.15625 C 4.132812 -1.96875 4.550781 -1.875 5.09375 -1.875 C 5.644531 -1.875 6.0625 -1.96875 6.34375 -2.15625 C 6.632812 -2.34375 6.828125 -2.613281 6.921875 -2.96875 C 7.023438 -3.320312 7.078125 -3.738281 7.078125 -4.21875 C 7.078125 -4.726562 7.023438 -5.160156 6.921875 -5.515625 C 6.828125 -5.867188 6.632812 -6.140625 6.34375 -6.328125 C 6.0625 -6.515625 5.644531 -6.609375 5.09375 -6.609375 C 4.550781 -6.609375 4.132812 -6.515625 3.84375 -6.328125 C 3.5625 -6.140625 3.367188 -5.867188 3.265625 -5.515625 C 3.160156 -5.160156 3.109375 -4.726562 3.109375 -4.21875 Z M 3.109375 -4.21875 "/></g></g></g><g fill="#ffffff" fill-opacity="1"><g transform="translate(11.523437, 50.388386)"><g><path d="M 5.25 -6.59375 C 5.957031 -6.59375 6.519531 -6.429688 6.9375 -6.109375 C 7.363281 -5.796875 7.671875 -5.378906 7.859375 -4.859375 C 8.054688 -4.335938 8.15625 -3.773438 8.15625 -3.171875 C 8.15625 -2.597656 8.054688 -2.050781 7.859375 -1.53125 C 7.671875 -1.007812 7.363281 -0.585938 6.9375 -0.265625 C 6.519531 0.046875 5.957031 0.203125 5.25 0.203125 C 4.726562 0.203125 4.285156 0.113281 3.921875 -0.0625 C 3.566406 -0.238281 3.273438 -0.484375 3.046875 -0.796875 L 3.046875 2.546875 L 0.546875 2.546875 L 0.546875 -6.390625 L 3.046875 -6.390625 L 3.046875 -5.59375 C 3.273438 -5.90625 3.566406 -6.148438 3.921875 -6.328125 C 4.285156 -6.503906 4.726562 -6.59375 5.25 -6.59375 Z M 4.359375 -1.734375 C 4.847656 -1.734375 5.1875 -1.84375 5.375 -2.0625 C 5.5625 -2.289062 5.65625 -2.664062 5.65625 -3.1875 C 5.65625 -3.71875 5.5625 -4.09375 5.375 -4.3125 C 5.1875 -4.53125 4.847656 -4.640625 4.359375 -4.640625 C 3.835938 -4.640625 3.488281 -4.519531 3.3125 -4.28125 C 3.132812 -4.039062 3.046875 -3.675781 3.046875 -3.1875 C 3.046875 -2.707031 3.132812 -2.34375 3.3125 -2.09375 C 3.488281 -1.851562 3.835938 -1.734375 4.359375 -1.734375 Z M 4.359375 -1.734375 "/></g></g></g><g fill="#ffffff" fill-opacity="1"><g transform="translate(19.754614, 50.388386)"><g><path d="M 3.9375 0 C 3.238281 0 2.6875 -0.101562 2.28125 -0.3125 C 1.882812 -0.519531 1.597656 -0.828125 1.421875 -1.234375 C 1.242188 -1.640625 1.15625 -2.132812 1.15625 -2.71875 L 1.15625 -4.5 L 0.0625 -4.5 L 0.0625 -5.65625 L 1.359375 -6.265625 L 2.390625 -7.96875 L 3.65625 -7.96875 L 3.65625 -6.390625 L 5.296875 -6.390625 L 5.296875 -4.5 L 3.65625 -4.5 L 3.65625 -1.984375 L 5.0625 -1.984375 L 5.0625 0 Z M 3.9375 0 "/></g></g></g><g fill="#ffffff" fill-opacity="1"><g transform="translate(25.114389, 50.388386)"><g><path d="M 0.578125 -7.09375 L 0.578125 -8.484375 L 3.078125 -8.484375 L 3.078125 -7.09375 Z M 0.578125 0 L 0.578125 -6.390625 L 3.078125 -6.390625 L 3.078125 0 Z M 0.578125 0 "/></g></g></g><g fill="#ffffff" fill-opacity="1"><g transform="translate(28.508846, 50.388386)"><g><path d="M 9.5625 -6.59375 C 10.414062 -6.59375 11.046875 -6.34375 11.453125 -5.84375 C 11.867188 -5.34375 12.078125 -4.675781 12.078125 -3.84375 L 12.078125 0 L 9.578125 0 L 9.578125 -3.4375 C 9.578125 -3.78125 9.503906 -4.050781 9.359375 -4.25 C 9.222656 -4.457031 8.976562 -4.5625 8.625 -4.5625 C 8.25 -4.5625 7.976562 -4.441406 7.8125 -4.203125 C 7.644531 -3.972656 7.5625 -3.609375 7.5625 -3.109375 L 7.5625 0 L 5.09375 0 L 5.09375 -3.4375 C 5.09375 -3.78125 5.019531 -4.050781 4.875 -4.25 C 4.738281 -4.457031 4.5 -4.5625 4.15625 -4.5625 C 3.78125 -4.5625 3.503906 -4.441406 3.328125 -4.203125 C 3.160156 -3.972656 3.078125 -3.609375 3.078125 -3.109375 L 3.078125 0 L 0.578125 0 L 0.578125 -6.390625 L 3.078125 -6.390625 L 3.078125 -5.40625 C 3.273438 -5.78125 3.546875 -6.070312 3.890625 -6.28125 C 4.242188 -6.488281 4.679688 -6.59375 5.203125 -6.59375 C 5.734375 -6.59375 6.175781 -6.472656 6.53125 -6.234375 C 6.894531 -5.992188 7.160156 -5.660156 7.328125 -5.234375 C 7.535156 -5.648438 7.816406 -5.976562 8.171875 -6.21875 C 8.523438 -6.46875 8.988281 -6.59375 9.5625 -6.59375 Z M 9.5625 -6.59375 "/></g></g></g><g fill="#ffffff" fill-opacity="1"><g transform="translate(40.862071, 50.388386)"><g><path d="M 0.3125 -6.46875 L 0.3125 -8.484375 L 2.453125 -8.484375 L 2.453125 -5.484375 C 2.453125 -5.203125 2.410156 -4.941406 2.328125 -4.703125 C 2.253906 -4.460938 2.101562 -4.269531 1.875 -4.125 C 1.65625 -3.988281 1.3125 -3.921875 0.84375 -3.921875 L 0.3125 -3.921875 L 0.3125 -5.1875 L 1.078125 -5.1875 L 1.078125 -6.46875 Z M 0.3125 -6.46875 "/></g></g></g><g fill="#ffffff" fill-opacity="1"><g transform="translate(43.375974, 50.388386)"><g><path d="M 3.203125 -2.015625 L 7.59375 -2.015625 L 7.59375 0 L 0.640625 0 L 0.640625 -8.484375 L 7.5625 -8.484375 L 7.5625 -6.46875 L 3.203125 -6.46875 L 3.203125 -5.234375 L 7.171875 -5.234375 L 7.171875 -3.390625 L 3.203125 -3.390625 Z M 3.203125 -2.015625 "/></g></g></g><g fill="#ffffff" fill-opacity="1"><g transform="translate(51.224292, 50.388386)"><g><path d="M 5.34375 -6.390625 L 7.703125 -6.390625 L 5.890625 -0.171875 C 5.722656 0.410156 5.507812 0.90625 5.25 1.3125 C 4.988281 1.71875 4.632812 2.023438 4.1875 2.234375 C 3.75 2.441406 3.175781 2.546875 2.46875 2.546875 L 0.375 2.546875 L 0.375 0.578125 L 3.40625 0.578125 L 3.640625 -0.234375 L 1.9375 -0.234375 L -0.015625 -6.390625 L 2.53125 -6.390625 L 3.609375 -2.96875 L 4.015625 -1.640625 L 4.359375 -2.96875 Z M 5.34375 -6.390625 "/></g></g></g><g fill="#ffffff" fill-opacity="1"><g transform="translate(58.625941, 50.388386)"><g><path d="M 4.03125 -1.4375 C 4.28125 -1.4375 4.488281 -1.476562 4.65625 -1.5625 C 4.832031 -1.65625 4.96875 -1.773438 5.0625 -1.921875 L 7.5 -1.921875 C 7.425781 -1.535156 7.257812 -1.179688 7 -0.859375 C 6.75 -0.535156 6.378906 -0.273438 5.890625 -0.078125 C 5.398438 0.109375 4.765625 0.203125 3.984375 0.203125 C 3.304688 0.203125 2.734375 0.109375 2.265625 -0.078125 C 1.804688 -0.273438 1.4375 -0.535156 1.15625 -0.859375 C 0.875 -1.179688 0.671875 -1.546875 0.546875 -1.953125 C 0.421875 -2.359375 0.359375 -2.773438 0.359375 -3.203125 C 0.359375 -3.816406 0.484375 -4.378906 0.734375 -4.890625 C 0.984375 -5.410156 1.375 -5.820312 1.90625 -6.125 C 2.445312 -6.4375 3.140625 -6.59375 3.984375 -6.59375 C 4.679688 -6.59375 5.257812 -6.492188 5.71875 -6.296875 C 6.175781 -6.097656 6.535156 -5.832031 6.796875 -5.5 C 7.066406 -5.175781 7.253906 -4.804688 7.359375 -4.390625 C 7.472656 -3.984375 7.53125 -3.554688 7.53125 -3.109375 C 7.53125 -2.867188 7.519531 -2.6875 7.5 -2.5625 L 2.796875 -2.5625 C 2.859375 -2.15625 2.992188 -1.863281 3.203125 -1.6875 C 3.410156 -1.519531 3.6875 -1.4375 4.03125 -1.4375 Z M 4.015625 -4.984375 C 3.671875 -4.984375 3.398438 -4.90625 3.203125 -4.75 C 3.003906 -4.59375 2.875 -4.320312 2.8125 -3.9375 L 5.171875 -3.9375 C 5.140625 -4.269531 5.03125 -4.523438 4.84375 -4.703125 C 4.664062 -4.890625 4.390625 -4.984375 4.015625 -4.984375 Z M 4.015625 -4.984375 "/></g></g></g><g fill="#ffffff" fill-opacity="1"><g transform="translate(66.257308, 50.388386)"><g><path d="M 0.234375 -2.03125 L 2.484375 -2.03125 C 2.515625 -1.8125 2.625 -1.617188 2.8125 -1.453125 C 3.007812 -1.296875 3.273438 -1.21875 3.609375 -1.21875 C 4.191406 -1.21875 4.484375 -1.378906 4.484375 -1.703125 C 4.484375 -1.828125 4.4375 -1.945312 4.34375 -2.0625 C 4.257812 -2.1875 4.03125 -2.265625 3.65625 -2.296875 L 2.390625 -2.421875 C 1.742188 -2.492188 1.25 -2.691406 0.90625 -3.015625 C 0.570312 -3.347656 0.40625 -3.804688 0.40625 -4.390625 C 0.40625 -4.929688 0.546875 -5.363281 0.828125 -5.6875 C 1.117188 -6.007812 1.5 -6.238281 1.96875 -6.375 C 2.445312 -6.519531 2.972656 -6.59375 3.546875 -6.59375 C 4.148438 -6.59375 4.6875 -6.523438 5.15625 -6.390625 C 5.625 -6.253906 6 -6.03125 6.28125 -5.71875 C 6.570312 -5.414062 6.738281 -5 6.78125 -4.46875 L 4.5625 -4.46875 C 4.5 -4.925781 4.171875 -5.15625 3.578125 -5.15625 C 3.253906 -5.15625 3.019531 -5.101562 2.875 -5 C 2.738281 -4.90625 2.671875 -4.785156 2.671875 -4.640625 C 2.671875 -4.515625 2.71875 -4.40625 2.8125 -4.3125 C 2.90625 -4.21875 3.097656 -4.160156 3.390625 -4.140625 L 4.6875 -4.03125 C 5.414062 -3.96875 5.957031 -3.78125 6.3125 -3.46875 C 6.675781 -3.164062 6.859375 -2.6875 6.859375 -2.03125 C 6.859375 -1.632812 6.757812 -1.265625 6.5625 -0.921875 C 6.375 -0.585938 6.039062 -0.316406 5.5625 -0.109375 C 5.09375 0.0976562 4.4375 0.203125 3.59375 0.203125 C 2.78125 0.203125 2.128906 0.0976562 1.640625 -0.109375 C 1.160156 -0.328125 0.8125 -0.609375 0.59375 -0.953125 C 0.375 -1.296875 0.253906 -1.65625 0.234375 -2.03125 Z M 0.234375 -2.03125 "/></g></g></g></svg>